<mxfile host="65bd71144e" modified="2021-01-21T16:52:22.507Z" agent="5.0 (X11; Linux x86_64) AppleWebKit/537.36 (KHTML, like Gecko) Code/1.52.1 Chrome/83.0.4103.122 Electron/9.3.5 Safari/537.36" etag="W9URSwNrlA_00kMKjrIM" version="13.10.0" type="embed">
    <diagram id="71XSpdbWFvCqVeqJNe6J" name="Page-1">
        <mxGraphModel dx="1252" dy="607" grid="1" gridSize="10" guides="1" tooltips="1" connect="1" arrows="1" fold="1" page="1" pageScale="1" pageWidth="1400" pageHeight="850" math="0" shadow="0">
            <root>
                <mxCell id="0"/>
                <mxCell id="1" parent="0"/>
                <mxCell id="2" value="" style="rounded=0;whiteSpace=wrap;html=1;" parent="1" vertex="1">
                    <mxGeometry x="40" y="20" width="960" height="560" as="geometry"/>
                </mxCell>
                <mxCell id="3" value="Main NAV BAR" style="rounded=1;whiteSpace=wrap;html=1;" parent="1" vertex="1">
                    <mxGeometry x="40" y="40" width="960" height="60" as="geometry"/>
                </mxCell>
                <mxCell id="4" value="tab bar for stats and favorites" style="rounded=1;whiteSpace=wrap;html=1;" parent="1" vertex="1">
                    <mxGeometry x="40" y="100" width="960" height="60" as="geometry"/>
                </mxCell>
                <mxCell id="5" value="Title - My Favourite Gun Stats" style="rounded=1;whiteSpace=wrap;html=1;" parent="1" vertex="1">
                    <mxGeometry x="40" y="160" width="650" height="60" as="geometry"/>
                </mxCell>
                <mxCell id="6" value="Title - Gun Stats for Gamer - gamer_tag&lt;br&gt;Should hide if no gamer selected&lt;br&gt;add button to remove compare stats" style="rounded=1;whiteSpace=wrap;html=1;" parent="1" vertex="1">
                    <mxGeometry x="690" y="160" width="310" height="60" as="geometry"/>
                </mxCell>
                <mxCell id="7" value="" style="rounded=1;whiteSpace=wrap;html=1;" parent="1" vertex="1">
                    <mxGeometry x="40" y="220" width="650" height="100" as="geometry"/>
                </mxCell>
                <mxCell id="8" value="Gun Image" style="rounded=1;whiteSpace=wrap;html=1;" parent="1" vertex="1">
                    <mxGeometry x="40" y="220" width="190" height="60" as="geometry"/>
                </mxCell>
                <mxCell id="9" value="Gun Stats" style="rounded=1;whiteSpace=wrap;html=1;" parent="1" vertex="1">
                    <mxGeometry x="230" y="220" width="460" height="60" as="geometry"/>
                </mxCell>
                <mxCell id="10" value="Gun Name" style="rounded=1;whiteSpace=wrap;html=1;" parent="1" vertex="1">
                    <mxGeometry x="40" y="280" width="190" height="40" as="geometry"/>
                </mxCell>
                <mxCell id="11" value="Gun Achievements" style="rounded=1;whiteSpace=wrap;html=1;" parent="1" vertex="1">
                    <mxGeometry x="230" y="280" width="460" height="40" as="geometry"/>
                </mxCell>
                <mxCell id="12" value="" style="rounded=1;whiteSpace=wrap;html=1;" parent="1" vertex="1">
                    <mxGeometry x="690" y="220" width="310" height="100" as="geometry"/>
                </mxCell>
                <mxCell id="13" value="Gun Stats" style="rounded=1;whiteSpace=wrap;html=1;" parent="1" vertex="1">
                    <mxGeometry x="690" y="220" width="310" height="60" as="geometry"/>
                </mxCell>
                <mxCell id="14" value="Gun Achievements" style="rounded=1;whiteSpace=wrap;html=1;" parent="1" vertex="1">
                    <mxGeometry x="690" y="280" width="310" height="40" as="geometry"/>
                </mxCell>
            </root>
        </mxGraphModel>
    </diagram>
</mxfile>